<mxfile host="app.diagrams.net" modified="2021-06-09T07:59:53.704Z" agent="5.0 (Windows NT 10.0; Win64; x64) AppleWebKit/537.36 (KHTML, like Gecko) Chrome/90.0.4430.212 Safari/537.36" etag="yVeERVSXTd6w6Nb8lUmU" version="14.7.6" type="github">
  <diagram id="kgpKYQtTHZ0yAKxKKP6v" name="Page-1">
    <mxGraphModel dx="1422" dy="882" grid="1" gridSize="10" guides="1" tooltips="1" connect="1" arrows="1" fold="1" page="1" pageScale="1" pageWidth="850" pageHeight="1100" math="0" shadow="0">
      <root>
        <mxCell id="0" />
        <mxCell id="1" parent="0" />
        <mxCell id="FABi1pu8SRAAy6zYCwlk-7" value="Init DeliveryStrategy Cache" style="rounded=1;whiteSpace=wrap;html=1;fillColor=#dae8fc;strokeColor=#6c8ebf;align=center;" parent="1" vertex="1">
          <mxGeometry x="360" y="132.5" width="200" height="60" as="geometry" />
        </mxCell>
        <mxCell id="FABi1pu8SRAAy6zYCwlk-9" value="Build Contract Details" style="html=1;fillColor=#f8cecc;strokeColor=#b85450;" parent="1" vertex="1">
          <mxGeometry x="380" y="270" width="165" height="50" as="geometry" />
        </mxCell>
        <mxCell id="FABi1pu8SRAAy6zYCwlk-35" value="" style="edgeStyle=orthogonalEdgeStyle;rounded=0;orthogonalLoop=1;jettySize=auto;html=1;entryX=0;entryY=0.5;entryDx=0;entryDy=0;" parent="1" source="FABi1pu8SRAAy6zYCwlk-10" target="FABi1pu8SRAAy6zYCwlk-18" edge="1">
          <mxGeometry relative="1" as="geometry" />
        </mxCell>
        <mxCell id="FABi1pu8SRAAy6zYCwlk-37" value="" style="edgeStyle=orthogonalEdgeStyle;rounded=0;orthogonalLoop=1;jettySize=auto;html=1;entryX=0;entryY=0.5;entryDx=0;entryDy=0;" parent="1" source="FABi1pu8SRAAy6zYCwlk-10" target="FABi1pu8SRAAy6zYCwlk-17" edge="1">
          <mxGeometry relative="1" as="geometry" />
        </mxCell>
        <mxCell id="FABi1pu8SRAAy6zYCwlk-10" value="Build QD Contract Details" style="html=1;fillColor=#f8cecc;strokeColor=#b85450;" parent="1" vertex="1">
          <mxGeometry x="380" y="500" width="165" height="50" as="geometry" />
        </mxCell>
        <mxCell id="FABi1pu8SRAAy6zYCwlk-13" value="Calculate Location Allowance" style="html=1;fillColor=#d5e8d4;strokeColor=#82b366;" parent="1" vertex="1">
          <mxGeometry x="610" y="300" width="165" height="50" as="geometry" />
        </mxCell>
        <mxCell id="FABi1pu8SRAAy6zYCwlk-14" value="Build Basic Fields" style="html=1;fillColor=#d5e8d4;strokeColor=#82b366;" parent="1" vertex="1">
          <mxGeometry x="610" y="240" width="165" height="50" as="geometry" />
        </mxCell>
        <mxCell id="FABi1pu8SRAAy6zYCwlk-15" value="Build Basic Fields" style="html=1;fillColor=#d5e8d4;strokeColor=#82b366;" parent="1" vertex="1">
          <mxGeometry x="705" y="410" width="165" height="50" as="geometry" />
        </mxCell>
        <mxCell id="FABi1pu8SRAAy6zYCwlk-16" value="Calculate Location Discount" style="html=1;fillColor=#d5e8d4;strokeColor=#82b366;" parent="1" vertex="1">
          <mxGeometry x="705" y="470" width="165" height="50" as="geometry" />
        </mxCell>
        <mxCell id="FABi1pu8SRAAy6zYCwlk-17" value="Regular" style="ellipse;whiteSpace=wrap;html=1;fillColor=#f5f5f5;strokeColor=#666666;fontColor=#333333;" parent="1" vertex="1">
          <mxGeometry x="590" y="445" width="60" height="40" as="geometry" />
        </mxCell>
        <mxCell id="FABi1pu8SRAAy6zYCwlk-18" value="All Items" style="ellipse;whiteSpace=wrap;html=1;fillColor=#f5f5f5;strokeColor=#666666;fontColor=#333333;" parent="1" vertex="1">
          <mxGeometry x="590" y="565" width="60" height="40" as="geometry" />
        </mxCell>
        <mxCell id="FABi1pu8SRAAy6zYCwlk-31" value="" style="edgeStyle=orthogonalEdgeStyle;rounded=0;orthogonalLoop=1;jettySize=auto;html=1;entryX=0;entryY=0.5;entryDx=0;entryDy=0;exitX=1;exitY=0.5;exitDx=0;exitDy=0;" parent="1" source="oFZh9j53hUqOiCjXro3S-6" target="FABi1pu8SRAAy6zYCwlk-9" edge="1">
          <mxGeometry relative="1" as="geometry" />
        </mxCell>
        <mxCell id="FABi1pu8SRAAy6zYCwlk-32" value="" style="edgeStyle=orthogonalEdgeStyle;rounded=0;orthogonalLoop=1;jettySize=auto;html=1;entryX=0;entryY=0.5;entryDx=0;entryDy=0;exitX=1;exitY=0.5;exitDx=0;exitDy=0;" parent="1" source="oFZh9j53hUqOiCjXro3S-6" target="FABi1pu8SRAAy6zYCwlk-10" edge="1">
          <mxGeometry relative="1" as="geometry" />
        </mxCell>
        <mxCell id="FABi1pu8SRAAy6zYCwlk-46" style="edgeStyle=orthogonalEdgeStyle;rounded=0;orthogonalLoop=1;jettySize=auto;html=1;entryX=0;entryY=0.5;entryDx=0;entryDy=0;exitX=1;exitY=0.5;exitDx=0;exitDy=0;" parent="1" source="oFZh9j53hUqOiCjXro3S-8" target="FABi1pu8SRAAy6zYCwlk-45" edge="1">
          <mxGeometry relative="1" as="geometry" />
        </mxCell>
        <mxCell id="FABi1pu8SRAAy6zYCwlk-48" style="edgeStyle=orthogonalEdgeStyle;rounded=0;orthogonalLoop=1;jettySize=auto;html=1;entryX=0;entryY=0.5;entryDx=0;entryDy=0;strokeColor=#000000;" parent="1" source="oFZh9j53hUqOiCjXro3S-8" target="FABi1pu8SRAAy6zYCwlk-47" edge="1">
          <mxGeometry relative="1" as="geometry">
            <mxPoint x="110" y="460" as="sourcePoint" />
          </mxGeometry>
        </mxCell>
        <mxCell id="oFZh9j53hUqOiCjXro3S-4" style="edgeStyle=orthogonalEdgeStyle;rounded=0;orthogonalLoop=1;jettySize=auto;html=1;entryX=0;entryY=0.5;entryDx=0;entryDy=0;" edge="1" parent="1" source="FABi1pu8SRAAy6zYCwlk-19" target="oFZh9j53hUqOiCjXro3S-3">
          <mxGeometry relative="1" as="geometry" />
        </mxCell>
        <mxCell id="oFZh9j53hUqOiCjXro3S-7" style="edgeStyle=orthogonalEdgeStyle;rounded=0;orthogonalLoop=1;jettySize=auto;html=1;entryX=0;entryY=0.5;entryDx=0;entryDy=0;" edge="1" parent="1" source="FABi1pu8SRAAy6zYCwlk-19" target="oFZh9j53hUqOiCjXro3S-6">
          <mxGeometry relative="1" as="geometry" />
        </mxCell>
        <mxCell id="oFZh9j53hUqOiCjXro3S-9" style="edgeStyle=orthogonalEdgeStyle;rounded=0;orthogonalLoop=1;jettySize=auto;html=1;entryX=0;entryY=0.5;entryDx=0;entryDy=0;" edge="1" parent="1" source="FABi1pu8SRAAy6zYCwlk-19" target="oFZh9j53hUqOiCjXro3S-8">
          <mxGeometry relative="1" as="geometry" />
        </mxCell>
        <mxCell id="FABi1pu8SRAAy6zYCwlk-19" value="contract break down" style="html=1;fillColor=#ffe6cc;strokeColor=#d79b00;" parent="1" vertex="1">
          <mxGeometry x="40" y="40" width="165" height="50" as="geometry" />
        </mxCell>
        <mxCell id="FABi1pu8SRAAy6zYCwlk-20" value="Build Basic Fields" style="html=1;fillColor=#d5e8d4;strokeColor=#82b366;" parent="1" vertex="1">
          <mxGeometry x="705" y="530" width="165" height="50" as="geometry" />
        </mxCell>
        <mxCell id="FABi1pu8SRAAy6zYCwlk-21" value="Calculate Location Discount" style="html=1;fillColor=#d5e8d4;strokeColor=#82b366;" parent="1" vertex="1">
          <mxGeometry x="705" y="590" width="165" height="50" as="geometry" />
        </mxCell>
        <mxCell id="FABi1pu8SRAAy6zYCwlk-22" value="Store Cache&lt;br&gt;(For Warehouse SCAN)" style="whiteSpace=wrap;html=1;rounded=1;strokeColor=#666666;fillColor=#f5f5f5;fontColor=#333333;" parent="1" vertex="1">
          <mxGeometry x="620" y="105" width="180" height="50" as="geometry" />
        </mxCell>
        <mxCell id="FABi1pu8SRAAy6zYCwlk-29" value="ItemCache" style="whiteSpace=wrap;html=1;rounded=1;strokeColor=#666666;fillColor=#f5f5f5;fontColor=#333333;" parent="1" vertex="1">
          <mxGeometry x="620" y="170" width="120" height="50" as="geometry" />
        </mxCell>
        <mxCell id="FABi1pu8SRAAy6zYCwlk-38" value="" style="shape=curlyBracket;whiteSpace=wrap;html=1;rounded=1;gradientColor=none;" parent="1" vertex="1">
          <mxGeometry x="665" y="410" width="20" height="110" as="geometry" />
        </mxCell>
        <mxCell id="FABi1pu8SRAAy6zYCwlk-39" value="" style="shape=curlyBracket;whiteSpace=wrap;html=1;rounded=1;gradientColor=none;size=0.5;" parent="1" vertex="1">
          <mxGeometry x="560" y="240" width="20" height="110" as="geometry" />
        </mxCell>
        <mxCell id="FABi1pu8SRAAy6zYCwlk-40" value="" style="shape=curlyBracket;whiteSpace=wrap;html=1;rounded=1;gradientColor=none;" parent="1" vertex="1">
          <mxGeometry x="665" y="530" width="20" height="110" as="geometry" />
        </mxCell>
        <mxCell id="FABi1pu8SRAAy6zYCwlk-45" value="Calculate Contract Date" style="html=1;fillColor=#f8cecc;strokeColor=#b85450;" parent="1" vertex="1">
          <mxGeometry x="380" y="635" width="165" height="50" as="geometry" />
        </mxCell>
        <mxCell id="FABi1pu8SRAAy6zYCwlk-47" value="Calculate Request Met" style="html=1;fillColor=#f8cecc;strokeColor=#b85450;" parent="1" vertex="1">
          <mxGeometry x="380" y="700" width="165" height="50" as="geometry" />
        </mxCell>
        <mxCell id="oFZh9j53hUqOiCjXro3S-2" value="" style="shape=curlyBracket;whiteSpace=wrap;html=1;rounded=1;gradientColor=none;" vertex="1" parent="1">
          <mxGeometry x="580" y="105" width="20" height="115" as="geometry" />
        </mxCell>
        <mxCell id="oFZh9j53hUqOiCjXro3S-5" style="edgeStyle=orthogonalEdgeStyle;rounded=0;orthogonalLoop=1;jettySize=auto;html=1;entryX=0;entryY=0.5;entryDx=0;entryDy=0;dashed=1;" edge="1" parent="1" source="oFZh9j53hUqOiCjXro3S-3" target="FABi1pu8SRAAy6zYCwlk-7">
          <mxGeometry relative="1" as="geometry" />
        </mxCell>
        <mxCell id="oFZh9j53hUqOiCjXro3S-3" value="preheat" style="ellipse;whiteSpace=wrap;html=1;aspect=fixed;fillColor=#e1d5e7;strokeColor=#9673a6;" vertex="1" parent="1">
          <mxGeometry x="190" y="132.5" width="60" height="60" as="geometry" />
        </mxCell>
        <mxCell id="oFZh9j53hUqOiCjXro3S-6" value="build" style="ellipse;whiteSpace=wrap;html=1;aspect=fixed;fillColor=#e1d5e7;strokeColor=#9673a6;" vertex="1" parent="1">
          <mxGeometry x="190" y="265" width="60" height="60" as="geometry" />
        </mxCell>
        <mxCell id="oFZh9j53hUqOiCjXro3S-8" value="extension" style="ellipse;whiteSpace=wrap;html=1;aspect=fixed;fillColor=#e1d5e7;strokeColor=#9673a6;" vertex="1" parent="1">
          <mxGeometry x="190" y="630" width="60" height="60" as="geometry" />
        </mxCell>
      </root>
    </mxGraphModel>
  </diagram>
</mxfile>
